<?xml version="1.0" standalone="no"?>
<svg xmlns="http://www.w3.org/2000/svg" viewBox="0 0 81.7 29" width="81.7" height="29"><path fill="#000000" fill-rule="nonzero" d="M1.08 16.99Q0.62 16.99 0.31 16.68Q0 16.37 0 15.91L0 15.91L0 1.22Q0 0.77 0.31 0.44Q0.62 0.12 1.08 0.12L1.08 0.12L6.55 0.12Q8.83 0.12 10.27 0.89Q11.71 1.66 12.34 2.86Q12.96 4.06 12.96 5.45L12.96 5.45Q12.96 6.84 12.34 8.04Q11.71 9.24 10.27 10.01Q8.83 10.78 6.55 10.78L6.55 10.78L2.18 10.78L2.18 15.91Q2.18 16.37 1.86 16.68Q1.54 16.99 1.08 16.99L1.08 16.99ZM2.18 8.71L6.34 8.71Q8.78 8.71 9.78 7.78Q10.78 6.84 10.78 5.45L10.78 5.45Q10.78 4.06 9.78 3.12Q8.78 2.18 6.34 2.18L6.34 2.18L2.18 2.18L2.18 8.71ZM17.21 16.99Q16.75 16.99 16.44 16.68Q16.13 16.37 16.13 15.91L16.13 15.91L16.13 1.58Q16.13 0.94 16.58 0.47Q17.04 0 17.69 0L17.69 0L18.48 0Q18.96 0 19.36 0.29Q19.75 0.58 19.94 1.01L19.94 1.01L25.39 14.59L30.84 1.01Q31.03 0.58 31.43 0.29Q31.82 0 32.30 0L32.30 0L33.10 0Q33.74 0 34.20 0.47Q34.66 0.94 34.66 1.58L34.66 1.58L34.66 15.91Q34.66 16.37 34.34 16.68Q34.03 16.99 33.58 16.99L33.58 16.99Q33.12 16.99 32.80 16.68Q32.47 16.37 32.47 15.91L32.47 15.91L32.47 2.28L26.93 15.98Q26.74 16.44 26.32 16.72Q25.90 16.99 25.39 16.99L25.39 16.99Q24.89 16.99 24.47 16.72Q24.05 16.44 23.86 15.98L23.86 15.98L18.31 2.28L18.31 15.91Q18.31 16.37 17.99 16.68Q17.66 16.99 17.21 16.99L17.21 16.99Z" transform="translate(0, 6.004)"></path><line x1="43.656000000000006" y1="2%" x2="43.656000000000006" y2="98%" stroke="#000000" stroke-linecap="round"></line><g fill="#000000" color="#000000" transform="translate(52.656000000000006 0) scale(0.6041667)"><svg width="48.0" height="48.0" x="0.0" y="0.0" viewBox="0 0 48 48"><g><path d="M39,4H9C8.5,4,8,4.4,8,5v23c0,0.6,0.4,1,1,1h30c0.6,0,1-0.4,1-1V5C40,4.4,39.6,4,39,4z M38,27H10V6h28V27z"></path><path d="M48,41c0-0.1,0-0.3-0.1-0.4L44,31.8V1c0-0.6-0.4-1-1-1H5C4.5,0,4,0.4,4,1v30.8l-3.9,8.8L0,41v3.7C0,46.6,1.5,48,3.3,48   h41.5c1.8,0,3.3-1.5,3.3-3.3L48,41C48,41,48,41,48,41z M6,2h36v29H6V2z M5.7,33h36.7l3.1,7H2.5L5.7,33z M46,44.8   c0,0.7-0.6,1.3-1.3,1.3H3.3C2.6,46,2,45.4,2,44.8V42h44V44.8z"></path><path d="M25.9,36.2h-3.8c-0.6,0-1,0.4-1,1s0.4,1,1,1h3.8c0.6,0,1-0.4,1-1S26.5,36.2,25.9,36.2z"></path><polygon points="18.6,18.2 13.5,15.8 13.5,15.7 18.6,13.3 18.6,11.7 11.7,14.9 11.7,16.7 18.6,19.9  "></polygon><polygon points="27.9,9.7 26.4,9.7 20.1,23.3 21.6,23.3  "></polygon><polygon points="36.3,14.9 29.4,11.7 29.4,13.3 34.5,15.7 34.5,15.8 29.4,18.2 29.4,19.9 36.3,16.7  "></polygon></g></svg></g></svg>